<svg width="24" height="24" viewBox="0 0 24 24" fill="none" xmlns="http://www.w3.org/2000/svg">
<g clip-path="url(#clip0_1033_1607)">
<path d="M21.1739 11.7101C21.1739 10.9312 21.112 10.3629 20.9782 9.77344H12.2724V13.2889H17.3825C17.2795 14.1625 16.7232 15.4782 15.4868 16.3623L15.4695 16.48L18.2221 18.6585L18.4128 18.6779C20.1642 17.0254 21.1739 14.594 21.1739 11.7101Z" fill="#2988FF"/>
<path d="M12.2724 20.9724C14.7759 20.9724 16.8776 20.1303 18.4128 18.6778L15.4868 16.3622C14.7038 16.9201 13.6529 17.3095 12.2724 17.3095C9.82036 17.3095 7.73924 15.6571 6.99738 13.373L6.88864 13.3825L4.02644 15.6454L3.98901 15.7517C5.51379 18.8462 8.64581 20.9724 12.2724 20.9724Z" fill="#34A853"/>
<path d="M6.9974 13.3731C6.80165 12.7837 6.68836 12.1521 6.68836 11.4995C6.68836 10.8469 6.80165 10.2154 6.9871 9.62602L6.98191 9.50049L4.08385 7.20117L3.98903 7.24725C3.3606 8.53136 3 9.97337 3 11.4995C3 13.0257 3.3606 14.4677 3.98903 15.7518L6.9974 13.3731Z" fill="#FBBC05"/>
<path d="M12.2724 5.69016C14.0135 5.69016 15.188 6.45851 15.8577 7.1006L18.4746 4.49029C16.8674 2.96411 14.7759 2.02734 12.2724 2.02734C8.64581 2.02734 5.51379 4.15346 3.98901 7.2479L6.98708 9.62667C7.73924 7.34267 9.82036 5.69016 12.2724 5.69016Z" fill="#EB4335"/>
</g>
<defs>
<clipPath id="clip0_1033_1607">
<rect x="3" y="2" width="18.1739" height="19" rx="9.08696" fill="white"/>
</clipPath>
</defs>
</svg>
