<svg width="24" height="24" viewBox="0 0 24 24" fill="none" xmlns="http://www.w3.org/2000/svg">
<path fill-rule="evenodd" clip-rule="evenodd" d="M2.00052 8.29943C2.02976 5.43719 4.29537 3 7.20736 3C8.99474 3 10.3095 3.88796 11.1485 4.72401C11.3821 4.95679 11.5826 5.18899 11.7505 5.4031C11.9184 5.18899 12.1188 4.95679 12.3524 4.72401C13.1915 3.88796 14.5062 3 16.2936 3C19.2056 3 21.4712 5.43719 21.5004 8.29943L21.5004 8.29965C21.5559 13.8821 17.0866 17.7441 12.5942 20.8046C12.3454 20.9745 12.0514 21.0654 11.7505 21.0654C11.4495 21.0654 11.1556 20.9745 10.9067 20.8046C6.41392 17.7441 1.94456 13.8821 2.00052 8.29958L2.00052 8.29943ZM12.4204 7.10208C12.293 7.35602 12.0339 7.51632 11.7505 7.51632C11.4671 7.51632 11.208 7.35603 11.0806 7.10211C11.0804 7.1018 11.0801 7.1012 11.0797 7.10032C11.0788 7.09854 11.0773 7.09561 11.0751 7.09159C11.074 7.08945 11.0727 7.08701 11.0713 7.08426C11.0628 7.06841 11.0488 7.04258 11.0292 7.00819C10.9899 6.93932 10.9286 6.83675 10.8452 6.71172C10.6777 6.46043 10.426 6.12543 10.0917 5.79232C9.4199 5.12293 8.46309 4.50544 7.20736 4.50544C5.17314 4.50544 3.5219 6.22131 3.50044 8.31472M12.4204 7.10208C12.4205 7.10176 12.4208 7.10117 12.4213 7.10032C12.4227 7.09759 12.4255 7.09218 12.4297 7.08426C12.4381 7.06841 12.4522 7.04258 12.4718 7.00819C12.5111 6.93932 12.5724 6.83675 12.6558 6.71172C12.8233 6.46043 13.075 6.12543 13.4093 5.79232C14.0811 5.12293 15.0379 4.50544 16.2936 4.50544C18.3278 4.50544 19.979 6.22127 20.0005 8.31466C20.0472 13.0188 16.2829 16.4722 11.7511 19.5595L11.7505 19.5599L11.7498 19.5594C7.21758 16.4722 3.45336 13.0189 3.50044 8.31487" fill="#5A5A5A"/>
</svg>
