<svg width="16" height="16" viewBox="0 0 16 16" fill="none" xmlns="http://www.w3.org/2000/svg">
<path d="M7.99986 14C7.79914 13.9997 7.60314 13.9391 7.43736 13.8259C4.98142 12.1587 3.91798 11.0156 3.33142 10.3009C2.08142 8.7775 1.48298 7.21344 1.49986 5.51969C1.51955 3.57875 3.07673 2 4.97111 2C6.34861 2 7.30267 2.77594 7.8583 3.42219C7.8759 3.44245 7.89764 3.4587 7.92207 3.46984C7.94649 3.48098 7.97302 3.48674 7.99986 3.48674C8.0267 3.48674 8.05323 3.48098 8.07765 3.46984C8.10207 3.4587 8.12382 3.44245 8.14142 3.42219C8.69705 2.77531 9.65111 2 11.0286 2C12.923 2 14.4802 3.57875 14.4999 5.52C14.5167 7.21406 13.9177 8.77813 12.6683 10.3013C12.0817 11.0159 11.0183 12.1591 8.56236 13.8263C8.39654 13.9393 8.20055 13.9998 7.99986 14Z" fill="#2988FF"/>
</svg>
