<svg width="48" height="48" viewBox="0 0 48 48" fill="none" xmlns="http://www.w3.org/2000/svg">
<rect width="48" height="48" rx="12" fill="#F5F5F5"/>
<path d="M14.258 17.3128C14.0272 17.4442 13.8354 17.6345 13.7022 17.8642C13.569 18.094 13.4993 18.355 13.5 18.6206V32.5312C13.4992 32.7904 13.5655 33.0454 13.6925 33.2713C13.8196 33.4972 14.003 33.6863 14.2248 33.8203C14.4467 33.9542 14.6995 34.0284 14.9586 34.0355C15.2177 34.0427 15.4742 33.9826 15.7031 33.8611C15.7233 33.8503 15.743 33.839 15.7622 33.8264L19.7063 31.2459C19.7586 31.2118 19.8016 31.165 19.8314 31.11C19.8611 31.055 19.8766 30.9934 19.8764 30.9309V14.1773C19.8766 14.109 19.8581 14.0419 19.823 13.9834C19.7879 13.9248 19.7374 13.8769 19.677 13.8449C19.6167 13.8129 19.5487 13.798 19.4805 13.8019C19.4123 13.8057 19.3464 13.828 19.29 13.8665L14.258 17.3128Z" fill="#1E1E1E"/>
<path d="M21.9544 13.8426C21.8978 13.8058 21.8324 13.785 21.765 13.7823C21.6977 13.7796 21.6308 13.7951 21.5715 13.8272C21.5122 13.8593 21.4626 13.9068 21.4281 13.9647C21.3935 14.0226 21.3751 14.0887 21.375 14.1562V30.9168C21.3749 30.9793 21.3903 31.0409 21.4201 31.0959C21.4498 31.1509 21.4928 31.1976 21.5452 31.2318L26.0452 34.1577C26.1017 34.1946 26.1672 34.2156 26.2347 34.2183C26.3022 34.2211 26.3692 34.2055 26.4286 34.1734C26.488 34.1412 26.5376 34.0936 26.5722 34.0355C26.6067 33.9775 26.625 33.9112 26.625 33.8437V17.0938C26.6252 17.0312 26.6097 16.9695 26.5798 16.9144C26.55 16.8593 26.5069 16.8125 26.4544 16.7784L21.9544 13.8426Z" fill="#1E1E1E"/>
<path d="M33.7748 14.1783C33.5538 14.043 33.3011 13.968 33.0421 13.9608C32.783 13.9535 32.5266 14.0143 32.2983 14.1371C32.2781 14.1474 32.2585 14.159 32.2397 14.1717L28.2952 16.7499C28.2428 16.784 28.1998 16.8307 28.1701 16.8858C28.1403 16.9408 28.1249 17.0023 28.125 17.0649V33.8208C28.1248 33.8892 28.1432 33.9564 28.1784 34.015C28.2135 34.0737 28.2641 34.1216 28.3245 34.1536C28.3849 34.1856 28.453 34.2005 28.5213 34.1966C28.5895 34.1927 28.6555 34.1702 28.7119 34.1316L33.7308 30.6882C33.9644 30.5578 34.1589 30.3674 34.2941 30.1367C34.4294 29.9059 34.5005 29.6431 34.5 29.3757V15.5007C34.5031 15.2365 34.438 14.976 34.3109 14.7443C34.1839 14.5127 33.9993 14.3177 33.7748 14.1783Z" fill="#1E1E1E"/>
</svg>
