<svg width="40" height="40" viewBox="0 0 40 40" fill="none" xmlns="http://www.w3.org/2000/svg">
<circle cx="20" cy="20" r="20" fill="#2988FF"/>
<path fill-rule="evenodd" clip-rule="evenodd" d="M19.2045 11.892C19.6438 11.4527 20.3562 11.4527 20.7955 11.892L27.5455 18.642C27.9848 19.0813 27.9848 19.7937 27.5455 20.233C27.1062 20.6723 26.3938 20.6723 25.9545 20.233L20 14.2785L14.0455 20.233C13.6062 20.6723 12.8938 20.6723 12.4545 20.233C12.0152 19.7937 12.0152 19.0813 12.4545 18.642L19.2045 11.892Z" fill="white"/>
<path fill-rule="evenodd" clip-rule="evenodd" d="M20 12.5C20.6213 12.5 21.125 13.0037 21.125 13.625V27.3125C21.125 27.9338 20.6213 28.4375 20 28.4375C19.3787 28.4375 18.875 27.9338 18.875 27.3125V13.625C18.875 13.0037 19.3787 12.5 20 12.5Z" fill="white"/>
</svg>
